<?xml version="1.0" encoding="UTF-8" standalone="no"?>
<!-- Created with Inkscape (http://www.inkscape.org/) -->

<svg
   xmlns:dc="http://purl.org/dc/elements/1.1/"
   xmlns:cc="http://creativecommons.org/ns#"
   xmlns:rdf="http://www.w3.org/1999/02/22-rdf-syntax-ns#"
   xmlns:svg="http://www.w3.org/2000/svg"
   xmlns="http://www.w3.org/2000/svg"
   xmlns:sodipodi="http://sodipodi.sourceforge.net/DTD/sodipodi-0.dtd"
   xmlns:inkscape="http://www.inkscape.org/namespaces/inkscape"
   width="48"
   height="48"
   viewBox="0 0 12.7 12.7"
   version="1.1"
   id="svg8"
   inkscape:version="0.92.4 (5da689c313, 2019-01-14)"
   sodipodi:docname="icon.svg">
  <defs
     id="defs2" />
  <sodipodi:namedview
     id="base"
     pagecolor="#ffffff"
     bordercolor="#666666"
     borderopacity="1.0"
     inkscape:pageopacity="0.0"
     inkscape:pageshadow="2"
     inkscape:zoom="11.2"
     inkscape:cx="17.309073"
     inkscape:cy="22.128736"
     inkscape:document-units="mm"
     inkscape:current-layer="layer1"
     showgrid="false"
     units="px"
     inkscape:window-width="1440"
     inkscape:window-height="837"
     inkscape:window-x="-8"
     inkscape:window-y="-8"
     inkscape:window-maximized="1" />
  <metadata
     id="metadata5">
    <rdf:RDF>
      <cc:Work
         rdf:about="">
        <dc:format>image/svg+xml</dc:format>
        <dc:type
           rdf:resource="http://purl.org/dc/dcmitype/StillImage" />
        <dc:title></dc:title>
      </cc:Work>
    </rdf:RDF>
  </metadata>
  <g
     inkscape:label="Layer 1"
     inkscape:groupmode="layer"
     id="layer1"
     transform="translate(0,-284.3)">
    <path
       style="opacity:1;fill:#000000;fill-opacity:1;stroke:#175a96;stroke-width:0;stroke-linecap:butt;stroke-linejoin:round;stroke-miterlimit:4;stroke-dasharray:none;stroke-opacity:1;paint-order:stroke fill markers"
       id="path4526"
       d="m 0.30349859,296.66893 c 0.0461953,-0.0479 0.0641792,-0.10475 0.0946759,-0.15716 0.0200873,-0.0196 0.0234238,-0.0392 0.0315099,-0.0612 0.007217,-0.0197 0.0234043,-0.0367 0.0315055,-0.0564 0.0196311,-0.0193 0.0231648,-0.0394 0.0320224,-0.0611 0.0104245,-0.0255 0.0225352,-0.0266 0.0304446,-0.0568 0.002915,-0.0165 0.0314405,-0.0256 0.0387659,-0.0404 0.003706,-0.008 0.001886,-0.0157 0.004833,-0.0234 0.004053,-0.0105 0.014382,-0.0205 0.0226078,-0.0295 4.6737e-4,-0.0222 0.0267007,-0.0382 0.0358097,-0.0581 0.0126157,-0.0275 0.008127,-0.0321 0.0307708,-0.0584 -0.00661,-0.0238 0.0216066,-0.0339 0.0321861,-0.0522 0.004194,-0.007 0.002839,-0.0155 0.006664,-0.0229 0.006437,-0.0123 0.0183231,-0.0231 0.0260007,-0.0351 0.005624,-0.005 0.0127479,-0.009 0.0168548,-0.0149 0.0228733,-0.0311 -0.002146,-0.0163 0.0280628,-0.0461 0.0172937,-0.017 0.0428067,-0.0342 0.064409,-0.0489 0.0102728,-0.0319 0.0732904,-0.0603 0.0936161,-0.0846 0.005787,-0.007 0.00752,-0.0151 0.0112904,-0.0225 0.003381,-0.0123 0.0231854,-0.0176 0.0301987,-0.0282 0.00467,-0.007 0.003912,-0.0154 0.008019,-0.0225 0.0148154,-0.0259 0.0238572,-0.0142 0.0346546,-0.0486 0.00431,-0.005 0.010056,-0.009 0.012938,-0.0141 0.014235,-0.0254 -0.0028,-0.0188 0.022917,-0.0353 0.00506,-0.003 0.013336,-0.004 0.016987,-0.008 0.051306,-0.0565 -0.026589,0.007 0.024228,-0.0322 0.032253,-0.0466 0.084802,-0.0833 0.1278819,-0.1251 0.051818,-0.0413 0.093056,-0.0879 0.1418545,-0.13084 0.058348,-0.0881 -0.021221,0.0275 0.035041,-0.042 0.00583,-0.007 0.00761,-0.0157 0.013763,-0.0228 0.021387,-0.0245 0.02895,-0.01 0.047613,-0.043 0.013115,-0.0126 0.039152,-0.0305 0.049939,-0.0431 0.023152,-0.0271 0.00805,-0.0234 0.046754,-0.0469 0.0064,-0.0271 0.039765,-0.0454 0.058105,-0.0682 0.040603,-0.0506 -0.014776,6e-5 0.028787,-0.0373 0.034363,-0.0219 0.00272,0.002 0.027538,-0.0325 0.00362,-0.005 0.010652,-0.009 0.015003,-0.0134 0.0187,-0.0204 0.022581,-0.0402 0.047201,-0.0581 0.017714,-0.0283 0.065572,-0.0418 0.090475,-0.0654 0.018913,-0.0277 0.00756,-0.0155 0.03254,-0.0369 -8.606e-4,-0.0263 0.032014,-0.0286 0.047037,-0.0444 0.00572,-0.006 0.00524,-0.014 0.01023,-0.0203 0.00616,-0.008 0.021763,-0.0156 0.031528,-0.0212 -0.00575,-0.0232 0.025989,-0.0281 0.03716,-0.0442 0.00472,-0.007 0.00322,-0.015 0.00726,-0.0219 0.00687,-0.0119 0.019004,-0.0221 0.026766,-0.0336 0.033082,-0.0392 0.065319,-0.0787 0.1124684,-0.11162 0.00642,-0.004 0.014632,-0.008 0.01927,-0.0133 0.049621,-0.057 -0.021964,0.007 0.026997,-0.0378 0.00317,-0.003 0.027375,-0.0214 0.029476,-0.0251 0.00405,-0.007 0.00387,-0.0154 0.00582,-0.0232 0.027019,-0.0424 0.049247,-0.0869 0.088383,-0.12535 0.010349,-0.024 0.043307,-0.0397 0.059022,-0.0614 0.00559,-0.008 0.00685,-0.0166 0.011865,-0.0244 0.00722,-0.0113 0.019515,-0.022 0.03006,-0.032 -0.00669,-0.0282 0.037672,-0.0404 0.049054,-0.0622 0.0063,-0.0289 3.615e-4,-0.016 0.015578,-0.0392 0.00403,-0.004 0.0092,-0.009 0.0121,-0.0133 0.0096,-0.0159 0.013204,-0.0332 0.022204,-0.0494 0.01472,-0.0263 0.038352,-0.0472 0.059232,-0.0713 0.027245,-0.0182 0.038348,-0.0385 0.053536,-0.0611 0.017008,-0.0252 0.028346,-0.0245 0.03956,-0.0543 0.00446,-0.005 0.00945,-0.01 0.013365,-0.0152 0.00509,-0.007 0.00804,-0.0144 0.013587,-0.0209 0.00894,-0.0106 0.025519,-0.0181 0.03312,-0.0292 0.054574,-0.0798 -0.029892,0.0224 0.022749,-0.0393 0.036965,-0.0333 0.042015,-0.0753 0.079607,-0.10838 -0.00501,-0.0237 0.025685,-0.0317 0.037304,-0.0489 0.018255,-0.0272 8.18e-4,-0.0213 0.035773,-0.0467 0.00452,-0.004 0.011098,-0.007 0.013572,-0.0112 0.00398,-0.007 0.0021,-0.0156 0.00514,-0.023 5.842e-4,-0.012 0.018044,-0.0185 0.022983,-0.029 0.026395,-0.0558 -0.014602,0.003 0.016731,-0.039 0.00448,-0.004 0.010154,-0.008 0.01341,-0.0121 0.00497,-0.007 0.0065,-0.0148 0.01104,-0.0218 0.00755,-0.0117 0.021759,-0.0214 0.027851,-0.0334 0.037108,-0.0737 -0.020015,0.0154 0.018839,-0.0427 0.039491,-0.0317 0.02847,-0.0757 0.05842,-0.10984 0.025541,-0.0134 0.028958,-0.036 0.043958,-0.0541 0.021437,-0.0259 0.033776,-0.0268 0.048569,-0.0578 0.0035,-0.013 0.023283,-0.0193 0.030702,-0.0304 0.00474,-0.007 0.00431,-0.0154 0.00858,-0.0228 0.015233,-0.0259 0.024374,-0.015 0.03557,-0.049 0.00137,-0.0119 0.02148,-0.0154 0.027652,-0.025 0.00451,-0.007 0.00303,-0.0152 0.00699,-0.0223 0.014146,-0.0253 0.023477,-0.0111 0.034601,-0.0467 0.00437,-0.005 0.00936,-0.009 0.013116,-0.0138 0.0051,-0.007 0.00786,-0.0139 0.01341,-0.0203 0.00903,-0.0104 0.025877,-0.0172 0.03348,-0.0281 0.057754,-0.0826 -0.032237,0.0245 0.022983,-0.0392 0.00488,-0.004 0.011526,-0.008 0.014632,-0.013 0.00446,-0.007 0.00354,-0.0155 0.00752,-0.0229 0.0014,-0.0122 0.021168,-0.0166 0.02738,-0.0266 0.035972,-0.0576 -0.018659,0.005 0.020008,-0.0367 0.029296,-0.0223 0.00159,0.002 0.021425,-0.0333 0.00284,-0.005 0.010154,-0.009 0.013072,-0.0139 0.00418,-0.007 0.0032,-0.0157 0.00792,-0.0229 0.00736,-0.0111 0.021986,-0.0194 0.031587,-0.0297 0.041428,-0.0263 -0.00198,0.005 0.0325,-0.0338 0.00455,-0.005 0.013365,-0.008 0.017916,-0.0131 0.00586,-0.007 0.0067,-0.0148 0.012836,-0.0212 0.050972,-0.0532 -0.017413,0.0418 0.031501,-0.0311 0.051643,-0.0251 -0.016542,0.011 0.032754,-0.0278 0.06414,-0.0506 -0.023933,0.0318 0.040045,-0.0121 0.014961,-0.0224 0.00449,-0.0137 0.028868,-0.0275 0.00582,-0.003 0.013749,-0.004 0.01744,-0.007 0.00567,-0.006 0.00436,-0.0141 0.00892,-0.0204 0.00336,-0.005 0.011232,-0.008 0.01444,-0.0122 0.017386,-0.0256 0.00549,-0.0248 0.041868,-0.0413 -0.00483,-0.0238 0.028412,-0.0256 0.040689,-0.0409 0.00517,-0.007 0.00378,-0.0146 0.00811,-0.0213 0.00742,-0.0115 0.019902,-0.0212 0.027949,-0.0324 0.017811,-0.0296 0.055552,-0.0511 0.079053,-0.0782 0.051371,-0.0594 -0.017853,0.006 0.033546,-0.0407 0.00607,-0.004 0.013822,-0.008 0.018189,-0.013 0.00563,-0.007 0.00608,-0.015 0.011158,-0.0218 0.018138,-0.0245 0.046283,-0.0455 0.065432,-0.0699 0.025818,-0.0173 0.03293,-0.0356 0.045464,-0.0574 0.011203,-0.0195 0.029578,-0.0337 0.040388,-0.0538 0.01547,-0.0237 0.02852,-0.0482 0.045078,-0.0714 0.00444,-0.006 0.012689,-0.0109 0.017332,-0.0171 0.028724,-0.0381 -0.00443,-0.01 0.030865,-0.0366 0.03691,-0.018 0.00296,0.002 0.030117,-0.0291 0.00398,-0.005 0.012335,-0.007 0.016132,-0.0115 0.00529,-0.007 0.00497,-0.0146 0.010479,-0.021 0.00883,-0.0102 0.024046,-0.0173 0.034382,-0.0268 0.049567,-0.0261 0.064461,-0.0677 0.1069686,-0.0977 -0.00332,-0.0231 0.029098,-0.0304 0.041111,-0.0468 0.018913,-0.0259 0.00194,-0.0212 0.03668,-0.0461 0.027407,-0.0395 0.043704,-0.0808 0.082971,-0.11634 0.030344,-0.0431 0.07994,-0.0797 0.099004,-0.12585 0.00461,-0.006 0.010381,-0.0117 0.013808,-0.018 0.00426,-0.008 0.00439,-0.0166 0.0091,-0.0243 0.018847,-0.031 0.040085,-0.0153 0.05321,-0.0581 0.00132,-0.0116 0.019781,-0.017 0.025164,-0.027 0.00396,-0.007 0.0023,-0.0156 0.0058,-0.0231 0.012174,-0.0258 0.022025,-0.0131 0.03212,-0.0492 0.0058,-0.004 0.013513,-0.008 0.017425,-0.0132 0.00554,-0.007 0.00543,-0.0162 0.010197,-0.0239 0.00378,-0.0128 0.023298,-0.0192 0.030652,-0.0303 0.04183,-0.0634 -0.020611,0.01 0.022438,-0.0384 0.00493,-0.004 0.011702,-0.007 0.014811,-0.0122 0.00456,-0.007 0.0035,-0.0154 0.00759,-0.0225 0.00148,-0.012 0.021565,-0.0158 0.027832,-0.0254 0.037771,-0.0583 -0.019812,0.006 0.020238,-0.0362 0.029398,-0.0219 0.0018,0.002 0.021584,-0.0331 0.036938,-0.0661 -0.010099,0.0332 0.027718,-0.0244 0.00942,-0.0144 0.011438,-0.0306 0.019353,-0.0454 0.017048,-0.0168 0.04162,-0.0319 0.05743,-0.0491 0.00652,-0.007 0.00838,-0.0157 0.014632,-0.0229 0.010674,-0.0122 0.025635,-0.0226 0.036976,-0.0345 0.0067,-0.005 0.014878,-0.009 0.020088,-0.0148 0.00637,-0.007 0.00802,-0.0156 0.014146,-0.0226 0.022912,-0.0264 0.051497,-0.0408 0.069922,-0.0706 0.00483,-0.0126 0.026999,-0.0153 0.035968,-0.0252 0.00571,-0.006 0.00568,-0.0145 0.010717,-0.0211 0.012189,-0.016 0.03117,-0.0328 0.048537,-0.0467 0.0057,-0.004 0.013233,-0.008 0.017078,-0.0132 0.00526,-0.007 0.00513,-0.0156 0.00961,-0.023 0.0027,-0.0124 0.02206,-0.018 0.028674,-0.0286 0.038184,-0.0613 -0.019544,0.008 0.020533,-0.0376 -0.0014,-0.0318 0.026165,-0.0293 0.039827,-0.0448 0.022087,-0.0249 -0.00144,-0.0181 0.040235,-0.0415 -0.00586,-0.0235 0.025865,-0.0282 0.037195,-0.0442 0.018635,-0.0264 -2.789e-4,-0.0202 0.035442,-0.046 0.013631,-0.0383 0.051138,-0.0776 0.084908,-0.11 0.00804,-0.0234 0.038686,-0.0394 0.052154,-0.0606 0.00502,-0.008 0.00566,-0.0168 0.010143,-0.0249 0.00783,-0.0141 0.019232,-0.0272 0.027609,-0.0411 0.038495,-0.0367 0.052665,-0.0808 0.095905,-0.11479 -0.0037,-0.0233 0.028236,-0.0309 0.040269,-0.0476 0.018855,-0.0263 0.00156,-0.0211 0.036591,-0.046 -0.0065,-0.0236 0.024085,-0.0296 0.035087,-0.0462 0.017986,-0.0274 -7.008e-4,-0.0206 0.034713,-0.0466 -0.00671,-0.0237 0.023657,-0.0298 0.034701,-0.0467 0.017935,-0.0275 -6.232e-4,-0.0207 0.034741,-0.0468 -0.00336,-0.0235 0.020638,-0.03 0.034765,-0.0468 0.01556,-0.0185 0.028938,-0.0416 0.040113,-0.0616 0.022429,-0.0195 0.0287,-0.0402 0.039748,-0.0626 0.00982,-0.0199 0.028011,-0.0362 0.038203,-0.0563 0.020974,-0.0192 0.025269,-0.039 0.034765,-0.0608 0.011217,-0.0257 0.022935,-0.026 0.031139,-0.0567 5.843e-4,-0.0125 0.019956,-0.0178 0.025912,-0.0281 0.00419,-0.007 0.00281,-0.0156 0.00664,-0.0229 0.013204,-0.0253 0.023325,-0.0132 0.033997,-0.0478 0.00132,-0.0118 0.021487,-0.0152 0.027637,-0.0245 0.00453,-0.007 0.00303,-0.0152 0.00699,-0.0223 0.01419,-0.0253 0.023551,-0.0111 0.034791,-0.0466 0.010706,-0.016 0.032564,-0.0338 0.043612,-0.0487 0.020723,-0.0278 0.00945,-0.0259 0.045127,-0.0491 0.00312,-0.0149 0.022933,-0.0235 0.031481,-0.0363 0.00515,-0.008 0.00566,-0.0165 0.010598,-0.0242 0.016458,-0.0258 0.027221,-0.0191 0.040332,-0.0517 0.021215,-0.02 0.043363,-0.0399 0.056881,-0.063 0.031473,-0.0538 -0.012159,-1.8e-4 0.023693,-0.0412 0.015976,-0.0284 0.048579,-0.0509 0.068635,-0.0777 0.041721,-0.0558 -0.013808,0.002 0.029982,-0.0412 0.00574,-0.004 0.013189,-0.008 0.017218,-0.0131 0.00534,-0.007 0.00543,-0.0152 0.010273,-0.0221 0.018001,-0.026 0.044923,-0.044 0.059436,-0.072 0.00391,-0.0127 0.025697,-0.0156 0.034121,-0.0256 0.00549,-0.007 0.00521,-0.0147 0.010067,-0.0214 0.017947,-0.0248 0.026387,-0.0119 0.039012,-0.0454 0.011894,-0.0159 0.033156,-0.0325 0.044815,-0.0478 0.0055,-0.007 0.00603,-0.0158 0.011423,-0.0232 0.00907,-0.0122 0.023337,-0.0224 0.03356,-0.0341 0.00642,-0.005 0.014353,-0.009 0.019263,-0.0146 0.00615,-0.007 0.00748,-0.0155 0.013425,-0.0227 0.00469,-0.0127 0.026804,-0.0154 0.035723,-0.0254 0.057671,-0.0646 -0.029362,0.0134 0.026002,-0.0343 0.031446,-0.0202 0.0032,0.002 0.0244,-0.0318 0.00315,-0.005 0.010717,-0.008 0.013822,-0.0134 0.00443,-0.007 0.00358,-0.0154 0.00846,-0.0225 0.00332,-0.005 0.010305,-0.008 0.015458,-0.0119 0.00354,-0.007 0.00705,-0.014 0.010587,-0.021 0.00467,-0.0122 0.02752,-0.008 0.03658,-0.0155 0.00633,-0.005 0.00549,-0.0133 0.010804,-0.0191 0.00393,-0.004 0.011644,-0.006 0.01624,-0.0103 0.047283,-0.0406 -0.014161,0.003 0.034761,-0.0302 0.038367,-0.0686 -0.012468,0.0149 0.029604,-0.036 0.00559,-0.007 0.00625,-0.0151 0.012174,-0.0217 0.021086,-0.0237 0.027625,-0.004 0.047421,-0.0396 0.011069,-0.0152 0.05837,-0.043 0.067798,-0.0551 0.012321,-0.0285 0.0037,-0.0159 0.023953,-0.0382 -0.00113,-0.0257 0.022831,-0.0299 0.041061,-0.0467 0.018909,-0.0174 0.032323,-0.0376 0.041169,-0.0582 0.013175,-0.0185 0.035169,-0.0346 0.049268,-0.0523 0.021475,-0.0271 0.012585,-0.0272 0.04745,-0.0499 -0.00354,-0.0232 0.02932,-0.0291 0.041505,-0.0453 0.00502,-0.007 0.00396,-0.0148 0.00827,-0.0216 0.031921,-0.0506 -0.00469,0.0359 0.022239,-0.0359 0.037141,-0.0325 0.080356,-0.0619 0.1025312,-0.10057 0.00579,-0.005 0.012851,-0.01 0.017379,-0.0158 0.00555,-0.007 0.00664,-0.0155 0.012542,-0.0226 0.047261,-0.056 -0.010908,0.0244 0.036038,-0.0222 0.059647,-0.0593 -0.030375,0.0106 0.026733,-0.0319 8.569e-4,-0.03 0.030799,-0.0255 0.044848,-0.0391 0.00592,-0.006 0.00492,-0.0137 0.0099,-0.0197 0.00571,-0.007 0.022795,-0.015 0.031875,-0.0198 0.028299,-0.0725 -0.011335,0.0184 0.022227,-0.0337 0.00452,-0.007 0.00358,-0.0154 0.00851,-0.0223 0.00744,-0.0105 0.038409,-0.0328 0.05158,-0.0411 -5.843e-4,-0.0247 0.034187,-0.0285 0.049461,-0.0448 0.00584,-0.006 0.00568,-0.0144 0.01075,-0.0208 0.034095,-0.0438 -0.00276,0.027 0.025491,-0.0345 0.00572,-0.015 0.040758,-0.0157 0.050349,-0.028 0.00386,-0.005 0.024712,-0.0532 0.026437,-0.0591 0.00113,-0.0126 0.023068,-0.0137 0.030215,-0.0225 0.00517,-0.007 0.0039,-0.0146 0.00843,-0.0212 0.00871,-0.0128 0.032922,-0.0344 0.04696,-0.0452 -0.00182,-0.0249 0.031644,-0.0307 0.046326,-0.0478 0.00556,-0.007 0.00529,-0.0147 0.010175,-0.0214 0.00623,-0.009 0.021028,-0.0171 0.031007,-0.0237 0.00378,-0.0272 0.036442,-0.0475 0.053118,-0.0695 0.037479,-0.0493 -0.013307,-9.8e-4 0.027972,-0.0377 0.00237,-0.002 0.031287,-0.0199 0.033,-0.0224 0.00477,-0.007 0.00362,-0.0152 0.00735,-0.0224 0.01366,-0.0264 0.022633,-0.0176 0.031287,-0.0514 0.00995,-0.0185 0.028685,-0.0345 0.040696,-0.052 0.019738,-0.0285 0.00891,-0.0266 0.044096,-0.0501 -6.231e-4,-0.0233 0.025351,-0.0294 0.040611,-0.0456 0.01741,-0.0184 0.029833,-0.0401 0.037891,-0.061 0.03636,-0.033 0.045802,-0.0688 0.084268,-0.10199 0.00698,-0.0295 0.043563,-0.048 0.064753,-0.0721 0.045347,-0.0515 -0.016006,9.7e-4 0.031177,-0.0371 0.00602,-0.004 0.013866,-0.006 0.018049,-0.0109 0.0057,-0.006 0.00567,-0.0145 0.010685,-0.0211 0.00315,-0.0117 0.024213,-0.0142 0.031395,-0.0235 0.049618,-0.0645 -0.026683,0.0123 0.022149,-0.0349 -0.0014,-0.0309 0.027005,-0.0274 0.041099,-0.0425 0.00561,-0.006 0.00448,-0.0141 0.00931,-0.0204 0.035217,-0.0462 -0.00568,0.0354 0.024596,-0.033 0.00346,-0.0121 0.026091,-0.01 0.034306,-0.0179 0.00588,-0.006 0.00483,-0.0138 0.00981,-0.0199 0.00749,-0.009 0.037768,-0.0345 0.049124,-0.0427 0.00171,-0.0242 0.029038,-0.0307 0.046772,-0.0473 0.019345,-0.018 0.033125,-0.039 0.042396,-0.0601 0.00315,-0.013 0.02361,-0.0184 0.031279,-0.0292 0.00496,-0.007 0.00455,-0.0154 0.00903,-0.0225 0.016198,-0.0258 0.02484,-0.0131 0.036966,-0.0477 0.041,-0.0259 0.03707,-0.0679 0.071733,-0.0954 0.0057,-0.003 0.01341,-0.004 0.017098,-0.008 0.00558,-0.006 0.00443,-0.0142 0.00924,-0.0205 0.00346,-0.005 0.010804,-0.007 0.0151,-0.0117 0.018485,-0.0184 0.034176,-0.0334 0.045415,-0.0544 0.015233,-0.0166 0.039111,-0.0312 0.053879,-0.0476 0.02387,-0.0267 0.011467,-0.0247 0.049383,-0.0479 -0.00327,-0.023 0.029895,-0.0288 0.042081,-0.0447 0.00505,-0.007 0.004,-0.0147 0.00833,-0.0215 0.00547,-0.009 0.019365,-0.0172 0.028802,-0.0239 0.023139,-0.0699 -0.00903,0.0151 0.020514,-0.0356 0.00424,-0.007 0.00324,-0.0156 0.008,-0.0228 0.015505,-0.0233 0.025179,-0.004 0.041563,-0.0407 0.00303,-0.0113 0.024303,-0.012 0.031255,-0.0207 0.00517,-0.006 0.00378,-0.0146 0.00813,-0.0212 0.01646,-0.0253 0.024122,-0.008 0.036497,-0.0449 0.00444,-0.005 0.010403,-0.009 0.013372,-0.0135 0.015214,-0.0257 -0.00303,-0.0183 0.023417,-0.0348 0.00509,-0.003 0.013437,-0.004 0.017121,-0.008 0.05313,-0.0578 -0.027806,0.008 0.024371,-0.0322 0,0 2.0425061,-0.60885 2.0425061,-0.60885 v 0 c -0.0037,0.006 -0.0074,0.0116 -0.01103,0.0175 -0.0062,0.003 -0.01482,0.004 -0.01841,0.008 -0.01409,0.0166 0.0024,0.0248 -0.01977,0.0382 -0.0054,0.003 -0.0158,9.7e-4 -0.02096,0.005 -0.0065,0.004 -0.0072,0.0113 -0.01073,0.017 -0.03469,0.0156 -0.01225,0.0281 -0.03436,0.0478 -0.0043,0.004 -0.0145,0.004 -0.01778,0.008 -0.0095,0.0124 2.5e-5,0.0293 -0.017,0.0403 -0.04,0.0166 -0.01073,0.0292 -0.03815,0.0457 -0.0054,0.003 -0.01582,9.7e-4 -0.02099,0.005 -0.06932,0.0469 0.0403,-0.006 -0.02865,0.0251 -0.0034,0.0121 -0.0056,0.0294 -0.01735,0.0401 -0.0044,0.004 -0.01465,0.005 -0.01815,0.009 -0.01459,0.0187 -0.0034,0.0418 -0.03904,0.0527 -0.0061,0.0151 -0.0096,0.031 -0.02514,0.0437 -0.0059,0.005 -0.01692,0.006 -0.02223,0.0111 -0.0092,0.009 -0.0306,0.0467 -0.04486,0.0566 -0.03807,0.0176 -0.0082,-3.6e-4 -0.03206,0.0313 -0.0038,0.005 -0.01117,0.009 -0.01533,0.0134 -0.0047,0.006 -0.0052,0.0125 -0.01101,0.0175 -0.0044,0.004 -0.01482,0.003 -0.01841,0.008 -0.0056,0.007 -0.0047,0.0149 -0.007,0.0223 -0.04519,0.056 0.01962,-0.0156 -0.03378,0.0202 -0.0065,0.004 -0.0053,0.0121 -0.01089,0.0169 -0.0043,0.004 -0.01451,0.004 -0.0179,0.008 -0.0096,0.0122 -4.29e-4,0.029 -0.01754,0.0396 -0.03378,0.0162 -0.01511,0.0293 -0.03773,0.0498 -0.0049,0.004 -0.01519,0.006 -0.0192,0.0103 -0.01104,0.0133 -0.0043,0.0315 -0.02333,0.0428 -0.0068,0.004 -0.01598,0.007 -0.02061,0.0117 -0.0062,0.007 -0.006,0.0157 -0.01062,0.0233 -0.0038,0.006 -0.01073,0.011 -0.01424,0.0172 -0.01182,0.0209 -0.0094,0.0417 -0.04428,0.0524 -0.0048,0.01 -0.02785,0.0449 -0.03701,0.053 -0.0044,0.004 -0.01478,0.004 -0.01828,0.008 -0.0099,0.0121 -7.01e-4,0.0292 -0.01956,0.0392 -0.04248,0.01 -0.0021,-0.003 -0.03196,0.0223 -0.0044,0.004 -0.01481,0.004 -0.01838,0.008 -0.01503,0.0178 -4.67e-4,0.0396 -0.04096,0.0435 -0.0037,0.006 -0.0074,0.0117 -0.01113,0.0176 -0.0061,0.003 -0.01465,0.005 -0.01815,0.009 -0.02702,0.0347 0.01297,0.0122 -0.01955,0.042 -0.005,0.005 -0.01538,0.006 -0.01948,0.0106 -0.0062,0.007 -0.0065,0.0161 -0.0098,0.0242 -0.0051,0.007 -0.01029,0.0129 -0.01541,0.0194 -0.0075,0.004 -0.01695,0.006 -0.0223,0.0111 -0.0069,0.007 -0.0074,0.0155 -0.01321,0.0226 -0.01225,0.015 -0.03172,0.0355 -0.05388,0.0438 -0.0067,0.0124 -0.02836,0.0423 -0.04025,0.0529 -0.0049,0.004 -0.01514,0.005 -0.01909,0.01 -0.01084,0.0129 -0.0039,0.0308 -0.02251,0.0418 -0.0067,0.004 -0.01568,0.006 -0.02011,0.0106 -0.006,0.007 -0.0053,0.0152 -0.0096,0.0224 -0.0034,0.006 -0.01029,0.0102 -0.01325,0.0159 -0.01051,0.0201 -0.0059,0.04 -0.03863,0.0512 -0.0053,0.0136 -0.009,0.0304 -0.02354,0.0417 -0.0055,0.004 -0.01629,0.005 -0.02126,0.009 -0.0064,0.006 -0.006,0.0143 -0.01117,0.0207 -0.0039,0.005 -0.01051,0.008 -0.01578,0.0123 -0.0037,0.006 -0.0074,0.0113 -0.01097,0.0167 -0.03276,0.0158 -0.01493,0.0282 -0.03432,0.0494 -0.0041,0.005 -0.01373,0.007 -0.01664,0.0114 -0.0091,0.0156 2.56e-4,0.0346 -0.01421,0.0495 -0.0048,0.006 -0.0095,0.0123 -0.01435,0.0185 -0.007,0.003 -0.01628,0.005 -0.0212,0.01 -0.0064,0.006 -0.006,0.0146 -0.01113,0.0212 -0.0039,0.005 -0.01141,0.008 -0.01562,0.0131 -0.02333,0.0267 0.0038,0.0102 -0.02928,0.0264 -0.004,0.0133 -0.0065,0.03 -0.01921,0.0416 -0.0049,0.004 -0.01522,0.005 -0.0192,0.0101 -0.01596,0.0191 -0.0065,0.0425 -0.04449,0.052 -0.0049,0.01 -0.02805,0.0437 -0.0375,0.0516 -0.0044,0.004 -0.01479,0.003 -0.01838,0.008 -0.0099,0.0115 -8.18e-4,0.0283 -0.01932,0.0376 -0.03763,0.009 -0.0068,-0.002 -0.0301,0.0229 -0.0039,0.004 -0.01351,0.005 -0.01606,0.01 -0.01141,0.0206 0.0021,0.0472 -0.0244,0.0651 -0.04203,0.0119 -0.0038,-0.003 -0.0336,0.0246 -0.0048,0.004 -0.01523,0.005 -0.01918,0.0102 -0.01601,0.0195 -0.0065,0.0431 -0.04493,0.0527 -0.0061,0.0113 -0.02613,0.0422 -0.04006,0.0508 -0.0054,0.003 -0.01578,9.7e-4 -0.02084,0.005 -0.06568,0.0461 0.03725,-0.005 -0.0283,0.0256 -0.0029,0.0113 -0.0052,0.0307 -0.01679,0.0409 -0.0044,0.004 -0.01478,0.004 -0.0183,0.008 -0.01503,0.0184 -6.62e-4,0.0405 -0.04145,0.0454 -0.004,0.006 -0.0079,0.0123 -0.01194,0.0183 -0.0065,0.003 -0.01529,0.005 -0.019332,0.01 -0.021792,0.0249 0.00488,0.021 -0.025249,0.0414 -0.00629,0.004 -0.017511,0.004 -0.023591,0.009 -0.00759,0.006 -0.010403,0.0134 -0.015691,0.0201 -0.00737,0.004 -0.016894,0.007 -0.02215,0.0127 -0.00683,0.007 -0.00737,0.0162 -0.012852,0.0239 -0.016894,0.0238 -0.036453,0.0455 -0.056882,0.0679 -0.041059,0.01 -0.00412,-0.003 -0.032252,0.0225 -0.00449,0.004 -0.014676,0.005 -0.018189,0.009 -0.014646,0.0186 -0.00344,0.0416 -0.039186,0.0523 -0.00613,0.0151 -0.00962,0.0306 -0.025167,0.0431 -0.00591,0.005 -0.016868,0.006 -0.022199,0.0111 -0.00686,0.007 -0.00727,0.0152 -0.012983,0.0223 -0.00455,0.006 -0.011644,0.01 -0.017468,0.015 -0.00461,0.006 -0.00921,0.0125 -0.013823,0.0187 -0.00677,0.004 -0.015808,0.006 -0.020294,0.0107 -0.00607,0.007 -0.00546,0.0152 -0.00989,0.0225 -0.00346,0.006 -0.010403,0.0102 -0.013646,0.0159 -0.011349,0.0201 -0.00712,0.0391 -0.043517,0.0464 -0.00407,0.006 -0.00817,0.0129 -0.012247,0.0194 -0.00613,0.004 -0.014788,0.007 -0.018429,0.0122 -0.00545,0.008 -0.00436,0.0171 -0.00769,0.0255 -0.014528,0.0366 -0.00391,0.009 -0.026703,0.0361 -0.00484,0.006 -0.00775,0.0122 -0.011614,0.0183 -0.03809,0.0183 -0.014205,0.0315 -0.042498,0.0501 -0.006,0.004 -0.016974,0.003 -0.022765,0.007 -0.06596,0.0466 0.033525,-0.004 -0.035219,0.0288 -0.00555,0.0111 -0.026161,0.0444 -0.036812,0.0539 -0.0044,0.004 -0.014847,0.004 -0.018383,0.008 -0.010024,0.0122 -9.347e-4,0.0296 -0.02056,0.0395 -0.050514,0.009 0.00509,-0.005 -0.034831,0.02 -0.00547,0.003 -0.015914,9.8e-4 -0.02107,0.005 -0.00657,0.005 -0.0055,0.0125 -0.011143,0.0176 -0.032474,0.0295 -0.00907,-0.0207 -0.0253,0.0324 -0.00414,0.006 -0.00829,0.0124 -0.012424,0.0186 -0.00649,0.004 -0.015377,0.006 -0.019492,0.0106 -0.026699,0.0318 0.00839,0.0163 -0.025164,0.0435 -0.00592,0.005 -0.016922,0.006 -0.022261,0.011 -0.00691,0.007 -0.00873,0.0151 -0.013101,0.0225 -0.012189,0.0105 -0.019142,0.0235 -0.031937,0.0335 -0.00552,0.004 -0.016272,0.005 -0.02118,0.01 -0.00642,0.006 -0.00593,0.0146 -0.0111,0.0212 -0.00386,0.005 -0.010392,0.009 -0.015599,0.0131 -0.0037,0.006 -0.0074,0.0116 -0.011114,0.0175 -0.033806,0.0165 -0.014661,0.0298 -0.037346,0.0503 -0.00485,0.004 -0.015252,0.005 -0.019263,0.0101 -0.011085,0.0132 -0.00422,0.0315 -0.02387,0.0424 -0.00718,0.003 -0.016498,0.005 -0.021558,0.0102 -0.00662,0.006 -0.00655,0.015 -0.011938,0.0218 -0.00423,0.005 -0.011938,0.009 -0.016568,0.0144 -0.00526,0.006 -0.00686,0.0132 -0.012925,0.0187 -0.00515,0.005 -0.015583,0.006 -0.019906,0.0112 -0.00629,0.007 -0.00707,0.0162 -0.010598,0.0243 -0.00539,0.007 -0.010771,0.0134 -0.016162,0.0201 -0.00755,0.004 -0.017152,0.008 -0.02264,0.0132 -0.00702,0.007 -0.00804,0.0163 -0.013763,0.024 -0.013984,0.0187 -0.028747,0.0381 -0.048095,0.0546 -0.00459,0.006 -0.00919,0.0123 -0.013778,0.0184 -0.00671,0.004 -0.015688,0.006 -0.020144,0.0107 -0.00598,0.007 -0.00534,0.0151 -0.00969,0.0222 -0.00338,0.006 -0.010338,0.01 -0.013365,0.0157 -0.038608,0.0725 0.022687,-0.021 -0.019509,0.0409 -0.036027,0.0194 -0.01739,0.0308 -0.042614,0.053 -0.00545,0.005 -0.016012,0.007 -0.020658,0.0116 -0.011203,0.0125 -0.00664,0.0299 -0.025001,0.0403 -0.00524,0.0137 -0.00894,0.0306 -0.02343,0.042 -0.00552,0.004 -0.016269,0.005 -0.021192,0.01 -0.00639,0.006 -0.00586,0.0145 -0.01104,0.021 -0.00381,0.005 -0.010359,0.008 -0.015545,0.0126 -0.00362,0.006 -0.00723,0.0112 -0.010836,0.0168 -0.034901,0.0153 -0.012262,0.0275 -0.034749,0.0467 -0.00437,0.004 -0.014499,0.004 -0.017873,0.008 -0.00956,0.0119 -1.769e-4,0.0285 -0.017019,0.0388 -0.034862,0.0151 -0.012763,0.0273 -0.035485,0.0464 -0.00453,0.004 -0.014646,0.004 -0.018205,0.008 -0.00997,0.0118 -0.00125,0.0288 -0.018713,0.0391 -0.032299,0.0166 -0.018021,0.0296 -0.038582,0.0511 -0.00477,0.005 -0.014485,0.008 -0.018087,0.013 -0.010024,0.0151 -0.00338,0.0336 -0.018072,0.0478 -0.016704,0.0195 -0.018262,0.0411 -0.036128,0.0599 -0.0051,0.005 -0.015033,0.009 -0.019045,0.0143 -0.010793,0.0155 -0.00555,0.0349 -0.021156,0.0496 -0.034195,0.0369 0.00187,-0.005 -0.024826,0.0384 -0.00324,0.005 -0.010143,0.009 -0.012925,0.0148 -0.00957,0.0186 -0.0028,0.0376 -0.034767,0.0467 -0.00303,0.011 -0.00547,0.0291 -0.016899,0.0389 -0.00437,0.004 -0.014485,0.004 -0.017845,0.008 -0.013573,0.0169 1.41e-4,0.0384 -0.034694,0.0467 -0.00303,0.0111 -0.00542,0.0291 -0.016814,0.0389 -0.00436,0.004 -0.01447,0.004 -0.017815,0.008 -0.013602,0.0171 1.44e-5,0.0386 -0.034767,0.0472 -0.00344,0.0122 -0.00567,0.0292 -0.017628,0.0399 -0.00456,0.004 -0.014745,0.005 -0.018349,0.009 -0.014987,0.0187 -0.00465,0.0419 -0.040336,0.0528 -0.00718,0.0164 -0.010435,0.0303 -0.026648,0.0441 -0.00616,0.005 -0.017102,0.008 -0.022573,0.0131 -0.00699,0.007 -0.008,0.0162 -0.013719,0.0238 -0.044945,0.0599 0.00962,-0.0285 -0.030659,0.0401 -0.061516,0.0548 0.028972,-0.0283 -0.031533,0.0364 -0.00537,0.006 -0.015474,0.009 -0.019812,0.0154 -0.01614,0.0228 -0.013043,0.0521 -0.042339,0.0713 -0.038504,0.0706 0.011923,-0.0163 -0.02909,0.04 -0.00484,0.007 -0.00584,0.0145 -0.011025,0.021 -0.00381,0.005 -0.011364,0.008 -0.015529,0.0126 -0.00469,0.005 -0.00521,0.0121 -0.010804,0.0169 -0.00436,0.004 -0.011865,0.005 -0.017799,0.008 -0.003,0.0112 -0.00541,0.0293 -0.01672,0.0392 -0.00432,0.004 -0.014456,0.004 -0.017743,0.008 -0.013454,0.0173 4.283e-4,0.039 -0.034433,0.0478 -0.003,0.0112 -0.00543,0.0303 -0.017211,0.0402 -0.00452,0.004 -0.014889,0.004 -0.018551,0.008 -0.015434,0.0178 -0.0014,0.0392 -0.041967,0.0433 -0.00386,0.006 -0.00775,0.0116 -0.011614,0.0175 -0.00612,0.003 -0.014727,0.005 -0.018356,0.01 -0.038274,0.0488 0.022076,-2.5e-4 -0.019944,0.0426 -0.00478,0.005 -0.014847,0.007 -0.018567,0.0124 -0.00552,0.008 -0.00534,0.0169 -0.00802,0.0254 -0.00749,0.0141 -0.026999,0.0427 -0.04018,0.0548 -0.00493,0.005 -0.01536,0.006 -0.019471,0.0107 -0.011438,0.0137 -0.00505,0.0326 -0.02537,0.0439 -0.00749,0.004 -0.017055,0.007 -0.022481,0.0117 -0.00707,0.007 -0.00777,0.0158 -0.013689,0.0231 -0.00485,0.006 -0.012895,0.0105 -0.018333,0.0162 -0.00598,0.006 -0.00878,0.014 -0.015808,0.0197 -0.00609,0.005 -0.017204,0.007 -0.022729,0.012 -0.00717,0.007 -0.00941,0.0155 -0.014102,0.0234 -0.012998,0.0116 -0.021265,0.0254 -0.034893,0.0367 -0.00616,0.005 -0.0173,0.007 -0.022873,0.0122 -0.010435,0.0101 -0.031115,0.0463 -0.045641,0.0578 -0.00192,7e-4 -0.036105,0.0132 -0.03778,0.0152 -0.021908,0.0274 0.00999,0.0158 -0.016918,0.0389 -0.00439,0.004 -0.014499,0.004 -0.017881,0.008 -0.0053,0.007 -0.00411,0.0148 -0.00615,0.0221 -0.00366,0.006 -0.00733,0.0112 -0.011011,0.017 -0.006,0.003 -0.014559,0.004 -0.018009,0.008 -0.02546,0.0316 0.012335,0.0128 -0.018001,0.0396 -0.00459,0.004 -0.014745,0.005 -0.018371,0.009 -0.00554,0.007 -0.00496,0.0153 -0.00743,0.0229 -0.00414,0.006 -0.00826,0.0122 -0.012395,0.0182 -0.00632,0.004 -0.01506,0.006 -0.018959,0.0107 -0.031902,0.0401 0.014603,0.008 -0.021319,0.0431 -0.00471,0.005 -0.014917,0.006 -0.018513,0.0113 -0.00508,0.007 -0.0041,0.0155 -0.00612,0.0233 -0.034795,0.0148 -0.012556,0.0266 -0.034675,0.0459 -0.00432,0.004 -0.014279,0.004 -0.017546,0.008 -0.00941,0.0122 8.11e-5,0.0288 -0.015836,0.0398 -0.029694,0.0186 -0.015431,0.0338 -0.029923,0.0581 -0.024412,0.0408 -0.0018,-0.003 -0.037288,0.0258 -0.00718,0.006 -0.00931,0.0138 -0.013955,0.0206 -0.031399,0.0244 -0.024957,0.0405 -0.04531,0.0683 -0.00506,0.007 -0.013146,0.0128 -0.018216,0.0196 -0.03672,0.0503 0.00916,7.3e-4 -0.031287,0.0419 -0.00876,0.0149 -0.029261,0.0421 -0.044085,0.0548 -0.00521,0.004 -0.01559,0.006 -0.019984,0.0104 -0.010316,0.0114 -0.00478,0.0277 -0.022294,0.037 -0.00344,0.0123 -0.00568,0.0293 -0.017608,0.0401 -0.00455,0.004 -0.014706,0.005 -0.018285,0.009 -0.014839,0.0187 -0.00443,0.0422 -0.039866,0.0534 -0.0067,0.0161 -0.010154,0.031 -0.02581,0.0447 -0.00593,0.005 -0.016864,0.007 -0.022083,0.0128 -0.01011,0.0107 -0.031282,0.0507 -0.040554,0.0636 -0.011069,0.01 -0.016174,0.0222 -0.029098,0.0307 -0.0055,0.004 -0.016167,0.002 -0.021405,0.006 -0.00683,0.005 -0.00611,0.0131 -0.012158,0.0185 -0.037482,0.0331 -0.00534,-0.0236 -0.029772,0.0331 -0.053579,0.0574 0.02111,-0.016 -0.041169,0.0266 -0.00793,0.005 -0.00979,0.014 -0.017138,0.0198 -0.0065,0.005 -0.017694,0.007 -0.023672,0.0125 -0.00727,0.007 -0.00995,0.0151 -0.014928,0.0225 -0.0063,0.005 -0.012601,0.01 -0.018898,0.0148 -0.016534,0.0197 -0.017899,0.0417 -0.035875,0.0608 -0.00515,0.005 -0.015201,0.009 -0.019291,0.0144 -0.011172,0.0159 -0.00605,0.0358 -0.022609,0.0506 -0.055161,0.0576 0.022967,-0.0268 -0.028825,0.0395 -0.00427,0.006 -0.011997,0.01 -0.016686,0.0148 -0.00534,0.006 -0.00711,0.0135 -0.013249,0.0192 -0.00529,0.005 -0.015786,0.007 -0.020276,0.0119 -0.00649,0.008 -0.00764,0.0167 -0.011467,0.025 -0.00575,0.007 -0.011525,0.014 -0.017277,0.0209 -0.00795,0.005 -0.017873,0.008 -0.023832,0.0144 -0.00751,0.008 -0.00925,0.017 -0.015594,0.0249 -0.014928,0.0188 -0.031049,0.039 -0.053653,0.054 -0.021163,0.0178 -0.012218,0.008 -0.026047,0.0303 -0.0043,0.004 -0.01447,0.004 -0.017752,0.008 -0.013542,0.0177 7.01e-4,0.0397 -0.035196,0.0483 -0.00312,0.0102 -0.00609,0.0304 -0.019395,0.0388 -0.00531,0.003 -0.015742,9.8e-4 -0.02072,0.005 -0.00644,0.005 -0.00497,0.0126 -0.010479,0.0177 -0.031007,0.0292 -0.010034,-0.0224 -0.023267,0.0324 -0.00362,0.006 -0.00722,0.0125 -0.010815,0.0187 -0.00609,0.003 -0.014799,0.004 -0.018293,0.009 -0.014072,0.018 0.00192,0.0271 -0.021354,0.0416 -0.00582,0.004 -0.016631,0.002 -0.022507,0.005 -0.00726,0.005 -0.0096,0.0115 -0.014411,0.0173 -0.05241,0.0135 0.0058,-0.005 -0.037794,0.0235 -0.00604,0.004 -0.017043,0.003 -0.0229,0.007 -0.00728,0.005 -0.00769,0.0135 -0.014499,0.0188 -0.040795,0.0323 -0.0055,-0.0201 -0.033008,0.0311 -0.011055,0.009 -0.016062,0.021 -0.028918,0.0286 -0.0055,0.003 -0.015832,8.9e-4 -0.021058,0.004 -0.00649,0.004 -0.00529,0.0121 -0.010908,0.0168 -0.031535,0.027 -0.0099,-0.0204 -0.024178,0.0299 -0.0037,0.006 -0.00742,0.0112 -0.011129,0.017 -0.00604,0.003 -0.014603,0.004 -0.018096,0.008 -0.027928,0.0344 0.014117,0.0105 -0.018419,0.0399 -0.00465,0.004 -0.014753,0.005 -0.018411,0.01 -0.00554,0.007 -0.00506,0.0155 -0.0076,0.0232 -0.00411,0.006 -0.00822,0.0127 -0.012335,0.0191 -0.00617,0.004 -0.014817,0.007 -0.018497,0.0119 -0.00543,0.008 -0.00432,0.0167 -0.00767,0.0248 -0.015167,0.0371 -0.00291,0.007 -0.026553,0.0334 -0.00469,0.005 -0.00722,0.0112 -0.010815,0.0168 -0.034869,0.0152 -0.01235,0.0275 -0.034795,0.0467 -0.0044,0.004 -0.014514,0.004 -0.01792,0.008 -0.00969,0.0121 -4.284e-4,0.0288 -0.017542,0.0393 -0.033608,0.016 -0.015434,0.029 -0.037666,0.0496 -0.00489,0.005 -0.0151,0.006 -0.019057,0.0108 -0.011114,0.0139 -0.00446,0.0324 -0.023298,0.0445 -0.033492,0.0232 -0.022543,0.0371 -0.045609,0.0623 -0.016006,0.0175 -0.040245,0.0257 -0.039129,0.0497 -0.052622,0.0614 0.025834,-0.0227 -0.033724,0.0202 -0.00633,0.005 -0.00545,0.0121 -0.010425,0.0173 -0.0041,0.004 -0.013425,0.006 -0.016198,0.0109 -0.00864,0.015 0.00101,0.0328 -0.011938,0.0473 -0.00402,0.006 -0.00804,0.0124 -0.012056,0.0186 -0.00593,0.004 -0.014338,0.007 -0.017788,0.0122 -0.00956,0.0145 -0.00695,0.0316 -0.016108,0.046 -0.00327,0.005 -0.010273,0.009 -0.013115,0.0144 -0.0037,0.007 -0.00411,0.0144 -0.00617,0.0215 -0.00362,0.006 -0.00722,0.0109 -0.010836,0.0163 -0.00584,0.003 -0.014264,0.004 -0.017542,0.008 -0.039917,0.0507 0.02576,-0.005 -0.015372,0.0387 -0.00386,0.004 -0.013292,0.005 -0.015797,0.01 -0.00426,0.008 -0.00215,0.0163 -0.0032,0.0244 -0.00338,0.0119 -0.0057,0.0291 -0.017597,0.0395 -0.00453,0.004 -0.014706,0.004 -0.018285,0.009 -0.014632,0.0179 -0.00344,0.0405 -0.038745,0.0504 -0.00559,0.0145 -0.0088,0.0294 -0.023007,0.0416 -0.00535,0.005 -0.015778,0.006 -0.020327,0.0111 -0.00861,0.01 -0.027718,0.05 -0.031403,0.0617 -0.00414,0.006 -0.00827,0.0127 -0.012395,0.0191 -0.0062,0.004 -0.014863,0.007 -0.018612,0.0121 -0.00552,0.008 -0.00455,0.0168 -0.00805,0.025 -0.015282,0.0359 -0.00423,0.009 -0.028125,0.035 -0.00517,0.006 -0.00826,0.0122 -0.012395,0.0183 -0.03304,0.0198 -0.010555,0.002 -0.028818,0.0362 -0.033366,0.0624 0.00524,-0.0161 -0.036454,0.0379 -0.013263,0.0172 -0.011114,0.0387 -0.030897,0.0543 -0.014617,0.0137 -0.024868,0.0294 -0.03956,0.0431 -0.023562,0.022 -0.060479,0.0311 -0.058615,0.0628 -0.00332,0.006 -0.00502,0.012 -0.00993,0.0172 -0.00393,0.004 -0.013336,0.006 -0.015926,0.0102 -0.015077,0.0268 0.00366,0.0579 -0.042328,0.0767 -0.00689,0.0179 -0.00915,0.03 -0.024175,0.0457 -0.00575,0.006 -0.01614,0.01 -0.020954,0.0162 -0.018048,0.024 -0.017628,0.0545 -0.049937,0.0741 -0.00562,0.008 -0.00989,0.0161 -0.016892,0.0234 -0.02475,0.0256 -0.017094,0.005 -0.037184,0.0318 -0.00488,0.007 -0.00592,0.0142 -0.011069,0.0205 -0.04045,0.0503 0.00933,-0.0308 -0.025841,0.0305 -0.027838,0.0199 -0.016662,0.0363 -0.028856,0.0614 -0.032868,0.0678 0.00786,-0.0213 -0.033036,0.0342 -0.00611,0.008 -0.00691,0.0179 -0.010392,0.027 -0.012395,0.0198 -0.030028,0.044 -0.051415,0.0603 -0.00652,0.005 -0.017881,0.007 -0.023976,0.0117 -0.076218,0.0654 0.036548,-0.0125 -0.034453,0.0347 -0.021265,0.0174 -0.012292,0.008 -0.026149,0.0296 -0.00431,0.004 -0.014425,0.004 -0.017717,0.008 -0.013484,0.0173 2.322e-4,0.0392 -0.034492,0.0483 -0.00346,0.0126 -0.0057,0.0303 -0.018013,0.0413 -0.00471,0.004 -0.015107,0.005 -0.018995,0.009 -0.01665,0.0197 -0.0067,0.0423 -0.046939,0.0511 -0.00504,0.007 -0.010067,0.0143 -0.015095,0.0214 -0.00724,0.005 -0.016642,0.009 -0.02171,0.0153 -0.00697,0.009 -0.00801,0.0186 -0.013484,0.0276 -0.013793,0.0225 -0.035894,0.0373 -0.059236,0.055 -0.042664,0.0419 0.00976,-0.002 -0.04225,0.023 -0.021667,0.0105 -0.013146,0.0187 -0.028342,0.0324 -0.00485,0.004 -0.015245,0.005 -0.019244,0.0101 -0.00598,0.007 -0.00609,0.0158 -0.00915,0.0238 -0.00484,0.006 -0.00969,0.0125 -0.014528,0.0187 -0.00712,0.003 -0.016408,0.005 -0.021382,0.0101 -0.00653,0.006 -0.0063,0.0149 -0.01157,0.0218 -0.00405,0.005 -0.011629,0.009 -0.01605,0.0141 -0.024362,0.0281 0.00308,0.0104 -0.031185,0.0285 -0.0052,0.014 -0.0087,0.0309 -0.023154,0.0426 -0.00549,0.005 -0.016291,0.005 -0.021151,0.01 -0.00621,0.006 -0.028626,0.0467 -0.038995,0.0546 -0.037077,0.0188 -0.017639,0.032 -0.046825,0.0523 -0.00687,0.005 -0.018423,0.006 -0.025024,0.0107 -0.00837,0.006 -0.012365,0.0147 -0.018543,0.022 -0.00846,0.006 -0.016941,0.011 -0.025413,0.0166 -0.035979,0.0526 -0.090431,0.0965 -0.1321127,0.14679 -0.018297,0.0149 -0.031481,0.0244 -0.046545,0.0409 -0.00694,0.008 -0.011099,0.0162 -0.018807,0.0235 -0.016234,0.0153 -0.04364,0.0248 -0.056957,0.0419 -0.00366,0.006 -0.00735,0.0115 -0.011011,0.0174 -0.00613,0.003 -0.014835,0.003 -0.018435,0.008 -0.014235,0.0166 0.00246,0.0246 -0.019932,0.0379 -0.00552,0.003 -0.015878,9.7e-4 -0.021118,0.005 -0.00652,0.004 -0.00738,0.0112 -0.011055,0.017 -0.033821,0.0157 -0.014559,0.0283 -0.03645,0.0487 -0.00468,0.004 -0.014785,0.006 -0.018477,0.0103 -0.010609,0.0137 -0.003,0.0321 -0.021172,0.0441 -0.00649,0.005 -0.015334,0.008 -0.019471,0.0139 -0.006,0.008 -0.00579,0.018 -0.010024,0.0269 -0.013454,0.028 -0.041305,0.056 -0.074062,0.0748 -0.011599,0.0181 -0.032623,0.0471 -0.052027,0.0622 -0.011482,0.009 -0.033428,0.0102 -0.043687,0.0198 -0.00644,0.006 -0.00748,0.0139 -0.011202,0.0209 -0.021717,0.0171 -0.012468,0.008 -0.027048,0.0293 -0.00453,0.004 -0.014662,0.004 -0.018227,0.008 -0.014338,0.0171 -0.00288,0.039 -0.037195,0.0483 -0.00485,0.0144 -0.00731,0.0283 -0.019672,0.041 -0.00463,0.005 -0.014293,0.007 -0.017748,0.0122 -0.012513,0.0188 -0.00386,0.044 -0.028996,0.0598 -0.00324,0.0121 -0.00522,0.0277 -0.015742,0.0385 -0.00394,0.004 -0.013381,0.005 -0.016,0.01 -0.011246,0.0196 0.00144,0.0457 -0.022305,0.0631 -0.03254,0.0163 -0.017441,0.029 -0.038154,0.0501 -0.00467,0.005 -0.014338,0.007 -0.017838,0.0122 -0.00966,0.0144 -0.0026,0.0323 -0.016676,0.046 -0.016486,0.018 -0.016004,0.0376 -0.032182,0.0556 -0.00459,0.005 -0.013969,0.008 -0.01732,0.0137 -0.010132,0.0167 -0.00288,0.0369 -0.018542,0.0527 -0.00541,0.008 -0.00982,0.0161 -0.016197,0.0237 -0.00616,0.007 -0.016235,0.0131 -0.021228,0.0207 -0.00642,0.01 -0.0079,0.0209 -0.012497,0.0312 -0.011202,0.0251 -0.03254,0.0472 -0.032408,0.074 0,0 -2.03044837,0.63173 -2.03044837,0.63173 z"
       inkscape:connector-curvature="0" />
    <path
       style="opacity:1;fill:#649b92;fill-opacity:1;stroke:#175a96;stroke-width:0;stroke-linecap:butt;stroke-linejoin:round;stroke-miterlimit:4;stroke-dasharray:none;stroke-opacity:1;paint-order:stroke fill markers"
       id="path4528"
       d="m 2.0943209,284.41938 c 0.0079,5e-5 0.016179,0.002 0.023693,1.7e-4 0.00825,-0.002 0.013627,-0.009 0.021385,-0.0129 0.036604,-0.0159 0.081728,-0.017 0.1215807,-0.0192 0.060001,-0.002 0.1200512,-2.4e-4 0.1800602,5.4e-4 0.05624,6.9e-4 0.1124856,8.3e-4 0.1687293,9.3e-4 0.055855,6e-5 0.1117118,4e-5 0.1675668,4e-5 0.055891,-10e-6 0.1117816,-10e-6 0.167673,-2e-5 0.055899,0 0.1117982,0 0.1676979,0 0.055899,0 0.1117981,0 0.1676978,0 0.055899,0 0.1117982,0 0.1676973,0 0.055899,0 0.1117981,0 0.1676972,0 0.055899,0 0.1117982,0 0.1676973,0 0.055899,0 0.1117982,0 0.1676975,0 0.055899,0 0.1117982,0 0.1676973,0 0.055899,0 0.1117981,0 0.1676972,0 0.055899,0 0.1117982,0 0.1676976,0 0.055899,0 0.1117982,0 0.1676973,0 0.055899,0 0.1117982,0 0.1676973,0 0.055899,0 0.1117981,0 0.1676971,0 0.054917,0.0208 0.1135681,0.0249 0.1725425,0.026 0.053213,0.0213 0.1105169,0.0243 0.1679961,0.0249 0.025785,0.009 0.05195,0.0188 0.079918,0.0224 0.00716,8.9e-4 0.014788,-4.7e-4 0.021603,0.002 0.017611,0.005 0.033002,0.0154 0.050319,0.0215 0.017329,0.009 0.04055,-3.2e-4 0.058219,0.004 0.027391,0.007 0.055325,0.0234 0.077347,0.0385 0.040325,0.0237 0.078397,0.0536 0.1097952,0.0862 0.024939,0.0264 0.041184,0.0646 0.073446,0.085 0.028815,0.0349 0.057728,0.0693 0.084913,0.10524 0.027438,0.037 0.055398,0.0735 0.081295,0.11144 0.020328,0.0339 0.040318,0.0677 0.060777,0.10154 0.023904,0.0317 0.032207,0.0728 0.061085,0.10154 0.025806,0.0312 0.042346,0.0675 0.066234,0.0996 0.023368,0.0375 0.040155,0.0779 0.057195,0.11793 0.013344,0.041 0.033679,0.0796 0.051669,0.11909 0.012762,0.0349 0.027794,0.069 0.04579,0.10205 0.023916,0.0386 0.039353,0.0804 0.058894,0.12069 0.015701,0.0414 0.034212,0.0821 0.048306,0.12393 0.015967,0.0423 0.012165,0.0875 0.021352,0.13061 0.011252,0.0425 0.020591,0.0857 0.022641,0.12944 0.012743,0.0446 0.021985,0.0895 0.027312,0.13528 0.00474,0.0497 0.00498,0.0996 0.00526,0.14932 -2.737e-4,0.041 -0.00278,0.0811 0.00627,0.12129 0.012308,0.0481 0.016904,0.0973 0.019652,0.14637 0.00213,0.0494 0.00203,0.0989 0.00203,0.14824 -3.84e-5,0.049 -1.16e-4,0.0979 -1.561e-4,0.14684 -3.45e-5,0.0489 -3.79e-5,0.0978 -4.11e-5,0.14669 -0.00437,0.0409 0.00251,0.0793 0.011405,0.1191 0.00473,0.0358 0.01793,0.0699 0.028242,0.10469 0.021196,0.0446 0.032031,0.0916 0.038629,0.13925 0.00551,0.0499 0.00562,0.10009 0.00587,0.1501 6.35e-5,0.0491 -1.09e-4,0.098 -1.926e-4,0.14709 -7.63e-5,0.0489 -8.92e-5,0.0978 -9.82e-5,0.14669 -6e-6,0.0489 -4.1e-6,0.0978 -3.2e-6,0.1467 7e-7,0.0489 1e-6,0.0978 1.3e-6,0.14671 0,0.0489 0,0.0978 0,0.1467 0,0.0489 0,0.0978 0,0.14671 0,0.049 0,0.0978 0,0.14671 0,0.0489 0,0.0978 0,0.14671 0.00799,0.0478 -8.139e-4,0.0917 -0.013228,0.13804 -0.010837,0.0433 -0.012609,0.0877 -0.014052,0.13172 -0.0011,0.0485 -9.077e-4,0.0972 -8.451e-4,0.14574 0.010719,0.0457 -0.00775,0.0892 -0.017411,0.13358 -0.00838,0.0449 -0.00928,0.0905 -0.010151,0.13586 -0.00385,0.0499 0.00754,0.0991 -0.0031,0.1483 -0.01332,0.0403 -0.01912,0.0816 -0.022407,0.12328 -0.00285,0.0478 -0.00276,0.0957 -0.00285,0.14361 1.03e-5,0.049 1.09e-4,0.0979 1.585e-4,0.14685 4.37e-5,0.049 4.96e-5,0.0978 5.41e-5,0.14676 2.5e-6,0.049 1.2e-6,0.0978 9e-7,0.14672 0.00125,0.0399 0.013736,0.0793 0.019787,0.11897 0.0066,0.0496 0.00745,0.0996 0.00812,0.14944 4.07e-4,0.0491 2.332e-4,0.0982 1.668e-4,0.14727 -7.07e-5,0.049 -9.45e-5,0.0978 -1.086e-4,0.14672 0.00295,0.0416 -0.00483,0.084 0.00179,0.1253 0.012268,0.0466 0.019011,0.0939 0.022908,0.14147 0.00276,0.0462 3.443e-4,0.0916 0.00904,0.13721 0.011429,0.0515 0.016878,0.10383 0.020003,0.15621 0.00234,0.0496 0.00232,0.0993 0.00234,0.14894 0.00295,0.0416 -0.00492,0.084 0.00163,0.12532 0.012228,0.0466 0.018961,0.0939 0.022854,0.14142 -0.00207,0.0475 0.010352,0.0936 0.018598,0.14027 0.00865,0.0511 0.010849,0.10289 0.012152,0.15456 8.765e-4,0.0492 6.887e-4,0.0984 6.262e-4,0.14756 -0.00442,0.0409 0.00238,0.0792 0.011252,0.11903 0.010861,0.0491 0.013764,0.0988 0.015589,0.14867 0.00414,0.0419 -0.00369,0.0849 0.00295,0.12648 0.012174,0.0466 0.018867,0.0939 0.022733,0.14152 -0.00122,0.047 0.00493,0.0922 0.013989,0.13842 0.010364,0.0514 0.013978,0.10365 0.016068,0.1558 0.00285,0.0404 0.014995,0.0801 0.021108,0.12042 0.00451,0.0468 0.010175,0.0942 0.00626,0.14111 0.0079,0.0503 0.018096,0.10019 0.023788,0.15075 1.91e-4,0.0419 0.013755,0.0822 0.021953,0.12328 0.00679,0.0414 0.00726,0.0827 0.017686,0.12359 0.013767,0.0408 0.011713,0.084 0.021568,0.12531 0.010175,0.0391 0.017928,0.0783 0.030772,0.11677 0.012431,0.0415 0.017496,0.084 0.032143,0.12511 0.015307,0.0393 0.037426,0.0759 0.053038,0.11513 0.018394,0.0358 0.031618,0.0729 0.040693,0.11124 0.012484,0.0374 0.024871,0.0745 0.039177,0.11135 0.00988,0.0335 0.023575,0.066 0.040421,0.0973 0.012916,0.0336 0.038611,0.0601 0.057534,0.0911 0.022147,0.0291 0.040517,0.0604 0.059376,0.0913 0.030887,0.0301 0.058075,0.0638 0.085281,0.0967 0.029547,0.0296 0.060545,0.0578 0.089048,0.0884 0.02868,0.0304 0.053136,0.0688 0.089882,0.0925 0.02456,0.0207 0.054475,0.0562 0.082178,0.0719 0.016425,0.0113 0.053833,0.0806 0.073218,0.0769 0.037788,0.0256 0.071082,0.0507 0.098463,0.0862 0.024705,0.0149 0.049643,0.0414 0.075282,0.0548 0.017398,0.0188 0.039884,0.0332 0.05927,0.05 0.033691,0.0291 0.00379,0.0104 0.028636,0.0248 0.024967,0.003 0.077642,0.0465 0.095794,0.064 0.031235,0.0237 0.062885,0.0486 0.08946,0.0767 0.028758,0.0235 0.058757,0.047 0.084014,0.0737 0.021468,0.0287 0.042743,0.0628 0.082487,0.0728 0.017408,0.0132 0.034964,0.0237 0.058371,0.0254 0.00573,3.9e-4 0.011796,-0.002 0.01723,-1.3e-4 0.015834,0.005 0.029426,0.0142 0.045135,0.0192 0.025121,-10e-4 0.039266,0.0183 0.061987,0.0246 0.00531,10e-4 0.011512,1.9e-4 0.016481,0.002 0.029657,0.0191 0.015254,0.012 0.042119,0.023 0.015113,0.0126 0.029726,0.0285 0.052227,0.0294 0.0046,1.9e-4 0.0095,-0.002 0.013776,-8.2e-4 0.014628,0.005 0.026698,0.0149 0.041321,0.02 0.024091,-0.001 0.036876,0.0183 0.058723,0.0243 0.00513,10e-4 0.011157,6e-5 0.015943,0.002 0.029294,0.019 0.015041,0.012 0.041639,0.0229 0.022588,0.0187 0.047828,0.0248 0.078058,0.0256 0.00702,2e-4 0.014306,-0.002 0.02107,10e-6 0.010151,0.002 0.018967,0.008 0.028452,0.012 0.012317,0.0104 0.02977,0.004 0.043483,0.0104 0.03758,0.0144 0.038537,0.0254 0.082543,0.0267 0.012947,0.003 0.027034,-0.004 0.039936,-10e-4 0.010258,0.002 0.018964,0.008 0.028749,0.0118 0.021374,0.007 0.041438,0.0104 0.064215,0.0114 0.048488,5.2e-4 0.096983,-6.1e-4 0.145469,-10e-4 0.056376,-0.007 0.1047657,0.0188 0.1599215,0.024 0.049237,0.002 0.098568,8.2e-4 0.1478376,4.2e-4 0.035603,0.004 0.07475,-0.006 0.1100057,-6.1e-4 0.020692,0.003 0.03969,0.0125 0.059768,0.0181 0.046065,0.0104 0.093954,0.007 0.1409929,0.007 0.055921,-0.006 0.1013346,0.0188 0.1564095,0.0238 0.049186,0.002 0.098453,6.5e-4 0.1476634,2.3e-4 0.0553,-4.7e-4 0.110601,-6.2e-4 0.165903,-7.4e-4 0.04845,0.0202 0.09873,0.0253 0.151448,0.0259 0.05216,-1.2e-4 0.104326,-7.1e-4 0.156489,-10e-4 0.05576,-3e-4 0.111515,-3.9e-4 0.167273,-4.1e-4 0.05595,-3e-5 0.111892,-3e-5 0.167839,-2e-5 0.05591,0 0.111809,0 0.167713,0 0.0559,0 0.111797,0 0.167696,0 0.0559,0 0.111798,0 0.167697,0 0.04866,-0.0256 0.107598,-0.0248 0.162685,-0.0259 0.03946,-0.006 0.107733,0.008 0.144156,7.6e-4 0.008,-0.002 0.01456,-0.007 0.02184,-0.0104 0.05492,-0.0159 0.113604,-0.015 0.170816,-0.0152 0.0097,4e-5 0.01975,0.002 0.02906,1.4e-4 0.01491,-0.004 0.02567,-0.016 0.04051,-0.02 0.01575,-0.004 0.03399,2.8e-4 0.04891,-0.006 0.0067,-0.003 0.0099,-0.009 0.01483,-0.0147 0.02792,-0.0198 0.06401,-0.005 0.09463,-0.0119 0.0075,-0.002 0.01279,-0.007 0.0199,-0.0103 0.008,-0.003 0.01675,-0.004 0.02512,-0.006 0.02647,-0.0104 0.06023,10e-4 0.08663,-0.006 0.0078,-0.002 0.01242,-0.009 0.01951,-0.0129 0.01712,-0.008 0.02759,-0.008 0.04669,-0.0116 0.01671,-0.007 0.03651,0.004 0.05326,-10e-4 0.0071,-0.002 0.01018,-0.009 0.01647,-0.0134 0.02037,-0.0115 0.04627,-0.0109 0.06934,-0.0117 0.0049,-0.005 0.0097,-0.009 0.01464,-0.0144 0,0 -1.414849,0.96495 -1.414849,0.96495 v 0 c -0.0089,-5.5e-4 -0.01779,-0.001 -0.02668,-0.002 -0.01966,0.007 -0.04123,0.0186 -0.06333,0.0195 -0.0092,3.3e-4 -0.01839,-0.003 -0.02759,-0.002 -0.0047,4.1e-4 -0.03907,0.0126 -0.04347,0.0142 -0.01612,0.005 -0.02861,0.0104 -0.04613,0.0107 -0.0097,3.5e-4 -0.01941,-0.003 -0.02909,-0.002 -0.02583,0.002 -0.04988,0.0163 -0.07502,0.0209 -0.03586,0.008 -0.01724,0.005 -0.05593,0.007 -0.02878,0.005 -0.05093,0.0289 -0.0816,0.0294 -0.03698,-0.004 -0.03903,0.004 -0.07269,0.008 -0.04297,0.005 -0.0083,-0.002 -0.05537,-0.003 -0.009,-3.8e-4 -0.01789,0.002 -0.02684,0.002 -0.05507,0.006 -0.108976,0.0199 -0.164578,0.0223 -0.05641,-0.006 -0.113187,-0.002 -0.169395,0.005 -0.05712,0.008 -0.114573,0.0255 -0.1727107,0.0142 -0.055899,0 -0.1117982,0 -0.1676972,0 -0.055899,0 -0.1117982,0 -0.1676966,0 -0.055897,0 -0.1117946,-10e-6 -0.1676913,1e-5 -0.055907,2e-5 -0.1118136,6e-5 -0.1677205,1.3e-4 -0.05606,6e-5 -0.1121223,2.3e-4 -0.1681796,-3.8e-4 -0.056324,-9.4e-4 -0.1128464,-0.002 -0.1685744,-0.0104 -0.044682,-0.007 -0.093915,-0.0257 -0.1384488,-0.014 -0.05618,10e-6 -0.1123779,1.5e-4 -0.1685318,-0.002 -0.055978,-0.002 -0.1120609,-0.006 -0.1665572,-0.0183 -0.0095,-0.002 -0.038275,-0.008 -0.048619,-0.009 -0.030411,-0.004 -0.061636,0.009 -0.092716,4.1e-4 -0.053512,-0.005 -0.1059098,-0.0138 -0.1583022,-0.0242 -0.063753,-10e-4 0.019521,-10e-4 -0.03621,0.004 -0.036944,0.004 -0.075428,-0.003 -0.1124821,-0.002 -0.055909,-0.002 -0.111894,-0.006 -0.1663755,-0.0181 -0.010317,-0.002 -0.0373,-0.008 -0.048419,-0.009 -0.030474,-0.003 -0.061408,0.0107 -0.092727,0.003 -0.056503,-0.002 -0.1132996,-0.006 -0.1677451,-0.0204 -0.048042,-0.0131 -0.094049,-0.0174 -0.1412975,-0.0314 -0.043161,-0.0171 -0.083303,-0.0324 -0.1290067,-0.0427 -0.054867,-0.004 -0.096285,-0.04 -0.1461376,-0.0563 -0.00647,-0.003 -0.012932,-0.006 -0.019399,-0.009 -0.00408,-4.6e-4 -0.00844,-2e-5 -0.012237,-0.001 -0.027838,-0.0103 -0.052066,-0.0248 -0.080439,-0.0333 -0.00678,-0.003 -0.013557,-0.006 -0.020338,-0.009 -0.00463,-7.6e-4 -0.00962,-5.8e-4 -0.013867,-0.002 -0.025059,-0.0104 -0.043487,-0.0297 -0.067753,-0.0407 -0.00272,-0.001 -0.00612,-6e-4 -0.00917,-9e-4 -0.00642,-0.003 -0.012853,-0.006 -0.01928,-0.009 -0.00406,-3.8e-4 -0.00836,1.4e-4 -0.012161,-10e-4 -0.027992,-0.009 -0.052511,-0.0241 -0.081236,-0.0318 -0.00711,-0.003 -0.014227,-0.006 -0.02134,-0.009 -0.00541,-0.001 -0.011169,-0.001 -0.016234,-0.003 -0.035638,-0.0144 -0.063668,-0.0392 -0.096795,-0.057 -0.040981,-0.0308 -0.080477,-0.0636 -0.111881,-0.10227 -0.029735,-0.0226 -0.055118,-0.0494 -0.083582,-0.0731 -0.028621,-0.021 -0.05299,-0.0462 -0.082302,-0.0665 -0.034169,-0.0168 -0.064749,-0.041 -0.094897,-0.0626 -0.026274,-0.0242 -0.054343,-0.0472 -0.083436,-0.0686 -0.033422,-0.0284 -0.07161,-0.0528 -0.097772,-0.0872 -0.027006,-0.0165 -0.050877,-0.0359 -0.076353,-0.0541 -0.02751,-0.027 -0.049352,-0.058 -0.078092,-0.0836 -0.028564,-0.027 -0.058923,-0.0525 -0.086206,-0.0806 -0.03093,-0.0329 -0.060368,-0.0668 -0.090339,-0.1003 -0.035004,-0.032 -0.068979,-0.0648 -0.098792,-0.1006 -0.030295,-0.0364 -0.06276,-0.0711 -0.094055,-0.10688 -0.024123,-0.0318 -0.042512,-0.0661 -0.066333,-0.098 -0.019859,-0.0329 -0.049352,-0.0617 -0.061706,-0.0981 -0.020097,-0.0374 -0.039908,-0.076 -0.050922,-0.11614 -0.012325,-0.038 -0.029905,-0.0741 -0.039894,-0.11267 -0.014725,-0.0371 -0.016644,-0.0772 -0.04056,-0.112 -0.00945,-0.0384 -0.035973,-0.0714 -0.046885,-0.10967 -0.018403,-0.0433 -0.032305,-0.0886 -0.040638,-0.13409 -0.011654,-0.0405 -0.027923,-0.0792 -0.032896,-0.12095 -0.013285,-0.0434 -0.018945,-0.0841 -0.023303,-0.12875 -0.010849,-0.0447 -0.025321,-0.088 -0.02266,-0.13432 -0.00518,-0.0457 -0.022892,-0.0892 -0.025053,-0.13485 -0.00175,-0.048 -0.00557,-0.096 -0.019045,-0.14272 -0.012289,-0.0472 -0.00773,-0.095 -0.010518,-0.14323 -0.00334,-0.0452 -0.013097,-0.0891 -0.025622,-0.13304 -9.99e-5,-0.046 1.208e-4,-0.0921 -0.00511,-0.1379 -0.00732,-0.0508 -0.026746,-0.0999 -0.023659,-0.1515 -0.00116,-0.0404 -0.00247,-0.0809 -0.013363,-0.12033 -0.013921,-0.0523 -0.016926,-0.0985 -0.014031,-0.15209 -3.443e-4,-0.042 -3.443e-4,-0.0841 -0.00588,-0.12597 -0.00842,-0.0484 -0.02817,-0.0952 -0.022198,-0.14493 7.45e-5,-0.0487 2.128e-4,-0.0973 3.756e-4,-0.14592 6.39e-5,-0.0464 4.696e-4,-0.0928 -0.00282,-0.13914 -0.00496,-0.0506 -0.020601,-0.0995 -0.025926,-0.14964 -0.00116,-0.0403 -0.00247,-0.0808 -0.01346,-0.12018 -0.01419,-0.0529 -0.017108,-0.0999 -0.01397,-0.15418 1.209e-4,-0.0482 3.757e-4,-0.0964 2.37e-4,-0.14456 -4.069e-4,-0.0459 -7.199e-4,-0.092 -0.00842,-0.13748 -0.00994,-0.051 -0.025966,-0.10029 -0.020285,-0.1527 -0.00116,-0.0403 -0.00247,-0.0808 -0.01346,-0.12014 -0.014212,-0.0529 -0.017148,-0.1 -0.014128,-0.15419 4.1e-6,-0.049 8.7e-6,-0.0979 5.72e-5,-0.14685 5.58e-5,-0.0487 1.626e-4,-0.0975 2.264e-4,-0.1462 -1.6e-5,-0.045 1.885e-4,-0.0899 -0.00225,-0.13491 -0.00348,-0.0456 -0.013711,-0.0899 -0.025979,-0.13441 0,-0.0489 6e-7,-0.0978 2.1e-6,-0.1467 1.6e-6,-0.049 5.3e-6,-0.0978 4e-7,-0.14671 -1.01e-5,-0.049 -2.19e-5,-0.0979 -1.491e-4,-0.14683 -1.493e-4,-0.0493 -4.382e-4,-0.0987 -6.573e-4,-0.14788 -3.98e-5,-0.0484 -9.704e-4,-0.0971 0.00616,-0.14515 0.0036,-0.0148 0.00428,-0.0232 0.012296,-0.0365 0.00276,-0.004 0.00878,-0.007 0.010139,-0.0127 0.00627,-0.0233 -0.00513,-0.0502 -2.879e-4,-0.0737 -2.639e-4,-0.0495 -8.451e-4,-0.099 1.909e-4,-0.1485 0.00154,-0.0406 -7.199e-4,-0.0859 0.028138,-0.12001 -7.73e-5,-0.0492 -2.106e-4,-0.0982 -5.009e-4,-0.14738 -2.63e-4,-0.0495 -9.391e-4,-0.099 0.00125,-0.14832 0.0016,-0.0222 0.00234,-0.0449 0.00961,-0.0663 0.00357,-0.0106 0.014741,-0.0184 0.017673,-0.0291 0.00217,-0.008 0,-0.0162 0,-0.0244 0,-0.049 0,-0.0978 0,-0.14671 0,-0.049 0,-0.0978 0,-0.14671 0,-0.0489 0,-0.0978 0,-0.14671 0,-0.049 0,-0.0978 0,-0.14671 0,-0.0488 0,-0.0978 -5e-7,-0.1467 -6e-7,-0.049 -2.3e-6,-0.0978 -2.5e-6,-0.14672 9e-7,-0.049 2e-7,-0.0979 3.84e-5,-0.14686 4.83e-5,-0.0489 1.331e-4,-0.0978 3.081e-4,-0.14677 1.324e-4,-0.0459 5.008e-4,-0.0916 -8.452e-4,-0.13743 -0.0016,-0.035 -0.00342,-0.07 -0.020625,-0.10237 -0.018172,-0.0411 -0.02962,-0.0859 -0.04044,-0.12864 -0.00842,-0.0484 -0.028186,-0.0952 -0.022272,-0.14486 0,-0.049 -1.6e-6,-0.0978 1.31e-5,-0.14677 1.94e-5,-0.049 5.21e-5,-0.0979 1.516e-4,-0.14686 9.14e-5,-0.0477 3.045e-4,-0.0955 -1.604e-4,-0.14325 -6.573e-4,-0.0408 -9.703e-4,-0.0818 -0.00897,-0.122 -0.011689,-0.0501 -0.02514,-0.0986 -0.018713,-0.15028 8.04e-5,-0.0462 3.444e-4,-0.0924 -0.00103,-0.13857 -0.00179,-0.0396 -0.00493,-0.0794 -0.019264,-0.11739 -0.012245,-0.0415 -0.00922,-0.084 -0.020876,-0.12576 -0.012205,-0.0423 -0.018002,-0.0834 -0.019412,-0.12708 -0.00745,-0.0363 -0.027945,-0.0686 -0.035953,-0.10476 -0.017009,-0.0382 -0.029118,-0.0779 -0.056136,-0.11209 -0.019998,-0.0374 -0.039451,-0.0757 -0.051245,-0.11557 -0.015058,-0.0413 -0.035812,-0.081 -0.055032,-0.12088 -0.010542,-0.0308 -0.025772,-0.0607 -0.040707,-0.0897 -0.019995,-0.0309 -0.037868,-0.0626 -0.059773,-0.0925 -0.026196,-0.0376 -0.044066,-0.0786 -0.071725,-0.11529 -0.019099,-0.0319 -0.037641,-0.0639 -0.055615,-0.0962 -0.022186,-0.0342 -0.044232,-0.0682 -0.070398,-0.10019 -0.02568,-0.0292 -0.048578,-0.0603 -0.078358,-0.0866 -0.024396,-0.0268 -0.047541,-0.0546 -0.071252,-0.0818 -0.025734,-0.0163 -0.046139,-0.0359 -0.077476,-0.0432 -0.021271,0.004 0.00401,5.8e-4 -0.029648,-0.003 -0.00495,-5e-4 -0.00994,0.002 -0.014851,0.001 -0.026717,-0.004 -0.051119,-0.0172 -0.076601,-0.0244 -0.07504,-0.0199 0.022554,0.003 -0.033465,-0.004 -0.029644,-0.004 -0.057398,-0.0209 -0.088404,-0.0138 -0.055521,-0.008 -0.1108789,-0.0262 -0.1673987,-0.0241 -0.053232,-0.007 -0.1094709,-0.0247 -0.1628521,-0.0141 -0.055899,0 -0.1117982,0 -0.1676975,0 -0.055899,0 -0.1117982,0 -0.1676973,0 -0.055899,0 -0.1117981,0 -0.1676973,0 -0.055899,0 -0.1117982,0 -0.1676974,0 -0.055899,0 -0.1117982,0 -0.1676973,0 -0.055899,0 -0.1117981,0 -0.1676973,0 -0.055899,0 -0.1117982,0 -0.1676974,0 -0.055899,0 -0.1117982,0 -0.1676973,0 -0.055899,0 -0.1117982,0 -0.1676974,0 -0.055899,0 -0.1117981,0 -0.1676973,0 -0.055899,0 -0.1117982,0 -0.1676971,0 -0.055899,0 -0.1117981,0 -0.1676975,0 -0.055905,0 -0.1118088,0 -0.1677132,-3e-5 -0.055918,-5e-5 -0.1118372,-1.2e-4 -0.1677557,-2.6e-4 -0.05564,-1.2e-4 -0.1112974,-4.5e-4 -0.16691992,10e-4 -0.054258,0.002 -0.10880381,0.005 -0.16098467,0.0198 -0.0361371,0.0104 -0.0735669,0.0268 -0.11134006,0.0316 -0.0115035,0.001 -0.0233731,-5.6e-4 -0.0348325,0.001 -0.0100696,10e-4 -0.0194286,0.005 -0.0291426,0.008 0,0 1.43428815,-0.95005 1.43428815,-0.95005 z"
       inkscape:connector-curvature="0" />
  </g>
</svg>
